<svg width="580" height="400" xmlns="http://www.w3.org/2000/svg">
  <path fill="#fff" d="M-1-1h582v402H-1z"/>
  <g>
    <path d="M-78.37-65.37h740.74v740.74H-78.37V-65.37z" fill="none"/>
    <path d="M-80.37-260.37h740.74v740.74H-80.37v-740.74z" fill="none"/>
    <path d="M188.34 279.05l79.939 79.938c12.037 12.037 31.481 12.037 43.518 0l79.939-79.939c19.444-19.444 5.555-52.777-21.914-52.777H209.945c-27.469 0-41.049 33.333-21.604 52.777zM189.34 118.95l79.939-79.938c12.037-12.037 31.481-12.037 43.518 0l79.939 79.939c19.444 19.444 5.555 52.777-21.914 52.777H210.945c-27.469 0-41.049-33.333-21.604-52.777z"/>
  </g>
</svg>
