<?xml version="1.0" ?><svg data-name="Layer 1" id="Layer_1" viewBox="0 0 500 500" xmlns="http://www.w3.org/2000/svg"><defs><style>.cls-1{fill:#e42e44;}.cls-2{fill:#b72740;}.cls-3{fill:#989898;}.cls-4{fill:#727373;}.cls-5{fill:none;stroke:#000;stroke-linecap:round;stroke-linejoin:round;stroke-width:20px;}</style></defs><title/><rect class="cls-1" height="77.74" transform="translate(483.77 218.53) rotate(-180)" width="100.59" x="191.59" y="70.4"/><polygon class="cls-2" points="292.18 148.13 292.18 114.59 347.06 114.59 321.26 148.13 347.06 181.68 260.25 181.68 260.25 148.13 292.18 148.13"/><path class="cls-3" d="M199.35,219.16,275.86,320l50.65-66.75a9.74,9.74,0,0,1,15.51,0L489.35,447.41H10.65L183.84,219.16A9.74,9.74,0,0,1,199.35,219.16Z"/><path class="cls-4" d="M270.82,329.47,277,318.55l49.56-65.31a9.74,9.74,0,0,1,15.51,0L489.35,447.41H360.54Z"/><path class="cls-5" d="M199.35,219.16,275.86,320l50.65-66.75a9.74,9.74,0,0,1,15.51,0L489.35,447.41H10.65L183.84,219.16A9.74,9.74,0,0,1,199.35,219.16Z"/><line class="cls-5" x1="191.59" x2="191.59" y1="215.31" y2="52.59"/><rect class="cls-5" height="77.74" transform="translate(483.77 218.53) rotate(-180)" width="100.59" x="191.59" y="70.4"/><polygon class="cls-5" points="292.18 148.13 292.18 114.59 347.06 114.59 321.26 148.13 347.06 181.68 260.25 181.68 260.25 148.13 292.18 148.13"/><line class="cls-5" x1="326.46" x2="275.86" y1="386.68" y2="319.99"/></svg>